<svg xmlns="http://www.w3.org/2000/svg" xmlns:xlink="http://www.w3.org/1999/xlink" width="1869.825" height="482.336" viewBox="0 0 1869.825 482.336">
  <defs>
    <linearGradient id="linear-gradient" x1="0.509" y1="0.008" x2="0.499" y2="0.932" gradientUnits="objectBoundingBox">
      <stop offset="0" stop-color="#00b3ff"/>
      <stop offset="0.067" stop-color="#009ee1"/>
      <stop offset="0.213" stop-color="#0074a6"/>
      <stop offset="0.358" stop-color="#005173"/>
      <stop offset="0.5" stop-color="#003349"/>
      <stop offset="0.637" stop-color="#001d29"/>
      <stop offset="0.768" stop-color="#000d12"/>
      <stop offset="0.892" stop-color="#000304"/>
      <stop offset="1"/>
    </linearGradient>
  </defs>
  <g id="Grupo_352" data-name="Grupo 352" transform="translate(-64.828 -770.267)" opacity="0.348">
    <path id="Trazado_752" data-name="Trazado 752" d="M71.689,1217.276l21.223-59.5,8.419,13.137,10.524-23.886,8.419,17.915,27.362-98.093,12.629,34.1,12.629-12.441,12.629,26.275,14.734-29.858,8.419,16.024,12.629-25.9,10.524-30.089,18.943-25.716,16.838,55.805,21.048-18.025,21.048,61.347,14.734-17.417,16.838,17.417,8.419-43.322,16.838,13.464,44.2-84.8,16.838,21.5,44.2-60.91,42.1,102.55,21.048-22.532,21.048,22.532,25.257-30.892,12.629,30.892,10.524-8.2L617,1079.406h27.362l25.258,34.178,52.62-116.932,12.629,52.439,82.087-130.2,23.153,52.652,14.734-25.112,21.048,34.588,18.943-15.526,39.991,68.075,23.153-23.592,21.567,33.146,7.637-14.332,12.892,16.72,12.629-11.943,14.733,12.54,8.419-10.749,15.786,32.832v-28.651l6.314,8.659,6.314-30.455,4.21,8.659,4.21-6.27,3.683,2.687,10-43.891,6.841,14.929,4.21-12.839,4.209,3.583L1109,945.187l8.419,19.109,7.367,5.374,3.157-10.749,21.574,64.492,11.577-35.53,10.524,9.554,7.893-11.943,34.2,80.615,10.524-18.213,5.262,8.062,8.945-22.692,7.367,6.27,69.984,133.976,37.886-39.029,23.679,33.142,34.729-116.209,9.472,14.395,29.993-89.851,28.415,104.287,9.472-18.2,29.993,81.139,29.993-53.172,7.893,16.063,15.786-56.641,12.629,17.846,31.572-82.256,29.993,47.344,23.679-22.4,12.629,32.856,25.258-46.178,12.629,41.093,23.679-41.093,15.786,32.136,6.314-12.938,14.032,52.339,7.016-8.149,3.508,3.981L1802,1039.338l4.209,4.578,8.419-19.507,7.016,8.758,14.733-37.023,2.807,6.967,5.613-4.777,4.56,4.976,18.319-16.095,19.046,14.99,16.005-31.848v357.367H71.513Z" transform="translate(-2.64 -102.828)" fill="url(#linear-gradient)" style="mix-blend-mode: screen;isolation: isolate"/>
    <g id="Grupo_351" data-name="Grupo 351" transform="translate(64.828 770.267)">
      <path id="Trazado_753" data-name="Trazado 753" d="M1906.468,770.267h-3.077v21.811h-.022v2.208h.022v43.489h-.022v2.208h.022v43.489h-.022v2.208h.022v43.489h-.022v2.208h.022v43.489h-.022v2.208h.022v43.489h-.022v2.208h.022v43.489h-.022v2.208h.022v43.489h-.022v2.208h.022v43.489h-.022v2.208h.022v43.489h-.022v2.208h.022v22.882H71.126V770.267H67.961v21.811H64.828v2.208h3.132v43.489H64.828v2.208h3.132v43.489H64.828v2.208h3.132v43.489H64.828v2.208h3.132v43.489H64.828v2.208h3.132v43.489H64.828v2.208h3.132v43.489H64.828v2.208h3.132v43.489H64.828v2.208h3.132v43.489H64.828v2.208h3.132v43.489H64.828v2.208h3.132v25.29H86.425v11.642h1.407v-11.642h20v2.183h1.407v-2.183h22.421v3.613h1.407v-3.613h20v2.183h1.407v-2.183H176.9v11.642h1.407v-11.642h20v2.183h1.407v-2.183h22.421v3.613h1.407v-3.613h20v2.183h1.407v-2.183h22.421v11.642h1.407v-11.642h20v2.183h1.407v-2.183h22.421v3.613h1.407v-3.613h20v2.183h1.407v-2.183h22.421v11.642h1.407v-11.642h20v2.183h1.407v-2.183h22.421v3.613h1.407v-3.613h20v2.183H425.9v-2.183h22.421v11.642h1.407v-11.642h20v2.183h1.407v-2.183H493.56v3.613h1.407v-3.613h20v2.183h1.407v-2.183H538.8v11.642H540.2v-11.642h20v2.183h1.407v-2.183h22.421v3.613h1.407v-3.613h20v2.183h1.407v-2.183h22.421v11.642h1.407v-11.642h20v2.183h1.407v-2.183H674.51v3.613h1.407v-3.613h20v2.183h1.407v-2.183h22.421v11.642h1.407v-11.642h20v2.183h1.407v-2.183h22.421v3.613h1.407v-3.613h20v2.183H787.8v-2.183h22.421v11.642h1.407v-11.642h20v2.183h1.407v-2.183h22.421v3.613h1.407v-3.613h20v2.183h1.407v-2.183H900.7v11.642H902.1v-11.642h20v2.183h1.407v-2.183h22.421v3.613h1.407v-3.613h20v2.183h1.407v-2.183h22.421v11.642h1.407v-11.642h20v2.183h1.407v-2.183h22.421v3.613h1.407v-3.613h20v2.183h1.407v-2.183h22.421v11.642h1.407v-11.642h20v2.183h1.407v-2.183h22.421v3.613h1.407v-3.613h20v2.183h1.407v-2.183h22.421v11.642h1.407v-11.642h20v2.183h1.407v-2.183h22.421v3.613h1.407v-3.613h20v2.183h1.407v-2.183h22.421v11.642H1264v-11.642h20v2.183h1.407v-2.183h22.421v3.613h1.407v-3.613h20v2.183h1.407v-2.183h22.421v11.642h1.407v-11.642h20v2.183h1.407v-2.183h22.421v3.613h1.407v-3.613h20v2.183h1.407v-2.183h22.421v11.642h1.407v-11.642h20v2.183h1.406v-2.183h22.421v3.613h1.406v-3.613h20v2.183h1.407v-2.183h22.421v11.642h1.407v-11.642h20v2.183h1.407v-2.183h22.421v3.613h1.407v-3.613h20v2.183h1.406v-2.183h22.421v11.642h1.407v-11.642h20v2.183h1.407v-2.183h22.421v3.613h1.407v-3.613h20v2.183h1.407v-2.183h22.421v11.642h1.406v-11.642h20v2.183h1.407v-2.183H1760.2v3.613h1.407v-3.613h20v2.183h1.407v-2.183h22.421v11.642h1.407v-11.642h20v2.183h1.406v-2.183h22.421v3.613h1.407v-3.613h20v2.183h1.407v-2.183h32.972v-25.29h3.1v-2.208h-3.1v-43.489h3.1v-2.208h-3.1v-43.489h3.1v-2.208h-3.1v-43.489h3.1v-2.208h-3.1v-43.489h3.1v-2.208h-3.1V977.074h3.1v-2.208h-3.1V931.377h3.1v-2.208h-3.1V885.68h3.1v-2.208h-3.1V839.984h3.1v-2.208h-3.1V794.287h3.1v-2.208h-3.1Z" transform="translate(-64.828 -770.267)" fill="#0068b9" style="mix-blend-mode: screen;isolation: isolate"/>
      <g id="Grupo_329" data-name="Grupo 329" transform="translate(1847.791 21.86)" style="mix-blend-mode: screen;isolation: isolate">
        <g id="Grupo_319" data-name="Grupo 319" transform="translate(2.088 406.996)">
          <path id="Trazado_754" data-name="Trazado 754" d="M2905.451,1644.778h-3.216V1644h1.053v-2.779l-1.081.205v-.8l2.2-.389V1644h1.046Z" transform="translate(-2902.207 -1640.241)" fill="#0068b9"/>
          <path id="Trazado_755" data-name="Trazado 755" d="M2909.782,1647.307l-.521,1.575h-.872l.361-1.575Z" transform="translate(-2904.649 -1643.555)" fill="#0068b9"/>
          <path id="Trazado_756" data-name="Trazado 756" d="M2913.637,1644.855q-1.815,0-1.815-2.237a2.759,2.759,0,0,1,.491-1.769,1.721,1.721,0,0,1,1.423-.608q1.772,0,1.772,2.274a2.718,2.718,0,0,1-.484,1.736A1.674,1.674,0,0,1,2913.637,1644.855Zm.05-3.864q-.727,0-.727,1.6,0,1.509.713,1.509.694,0,.695-1.556T2913.687,1640.991Z" transform="translate(-2906.004 -1640.241)" fill="#0068b9"/>
          <path id="Trazado_757" data-name="Trazado 757" d="M2920.539,1644.855q-1.815,0-1.815-2.237a2.762,2.762,0,0,1,.491-1.769,1.721,1.721,0,0,1,1.424-.608q1.772,0,1.772,2.274a2.715,2.715,0,0,1-.484,1.736A1.674,1.674,0,0,1,2920.539,1644.855Zm.049-3.864q-.725,0-.727,1.6,0,1.509.713,1.509.7,0,.695-1.556T2920.589,1640.991Z" transform="translate(-2908.73 -1640.241)" fill="#0068b9"/>
          <path id="Trazado_758" data-name="Trazado 758" d="M2927.442,1644.855q-1.815,0-1.815-2.237a2.762,2.762,0,0,1,.491-1.769,1.722,1.722,0,0,1,1.424-.608q1.772,0,1.772,2.274a2.716,2.716,0,0,1-.484,1.736A1.674,1.674,0,0,1,2927.442,1644.855Zm.05-3.864q-.727,0-.727,1.6,0,1.509.712,1.509.7,0,.7-1.556T2927.492,1640.991Z" transform="translate(-2911.457 -1640.241)" fill="#0068b9"/>
        </g>
        <g id="Grupo_320" data-name="Grupo 320" transform="translate(1.994 358.093)">
          <path id="Trazado_759" data-name="Trazado 759" d="M2903.335,1551.853v.019h2.063v.816h-3.347v-.766l1.457-1.222a3.778,3.778,0,0,0,.618-.621.892.892,0,0,0,.179-.528q0-.616-.755-.616a2.036,2.036,0,0,0-1.255.458v-.865a2.974,2.974,0,0,1,1.5-.376,1.925,1.925,0,0,1,1.217.344,1.118,1.118,0,0,1,.438.929,2.231,2.231,0,0,1-1.067,1.615Z" transform="translate(-2902.052 -1548.151)" fill="#0068b9"/>
          <path id="Trazado_760" data-name="Trazado 760" d="M2909.937,1555.217l-.521,1.574h-.872l.361-1.574Z" transform="translate(-2904.616 -1551.465)" fill="#0068b9"/>
          <path id="Trazado_761" data-name="Trazado 761" d="M2913.792,1552.765q-1.815,0-1.815-2.237a2.763,2.763,0,0,1,.491-1.769,1.722,1.722,0,0,1,1.423-.608q1.772,0,1.773,2.274a2.713,2.713,0,0,1-.484,1.736A1.674,1.674,0,0,1,2913.792,1552.765Zm.049-3.864q-.726,0-.727,1.6,0,1.51.713,1.509.7,0,.694-1.555T2913.842,1548.9Z" transform="translate(-2905.972 -1548.151)" fill="#0068b9"/>
          <path id="Trazado_762" data-name="Trazado 762" d="M2920.7,1552.765q-1.815,0-1.815-2.237a2.763,2.763,0,0,1,.491-1.769,1.721,1.721,0,0,1,1.424-.608q1.772,0,1.772,2.274a2.718,2.718,0,0,1-.483,1.736A1.676,1.676,0,0,1,2920.7,1552.765Zm.049-3.864q-.727,0-.727,1.6,0,1.51.712,1.509.7,0,.7-1.555T2920.745,1548.9Z" transform="translate(-2908.698 -1548.151)" fill="#0068b9"/>
          <path id="Trazado_763" data-name="Trazado 763" d="M2927.6,1552.765q-1.815,0-1.815-2.237a2.764,2.764,0,0,1,.491-1.769,1.723,1.723,0,0,1,1.424-.608q1.772,0,1.773,2.274a2.718,2.718,0,0,1-.484,1.736A1.675,1.675,0,0,1,2927.6,1552.765Zm.05-3.864q-.727,0-.727,1.6,0,1.51.713,1.509.694,0,.695-1.555T2927.647,1548.9Z" transform="translate(-2911.424 -1548.151)" fill="#0068b9"/>
        </g>
        <g id="Grupo_321" data-name="Grupo 321" transform="translate(2.061 316.552)">
          <path id="Trazado_764" data-name="Trazado 764" d="M2902.163,1460.451v-.855a2.163,2.163,0,0,0,1.191.326,1.185,1.185,0,0,0,.668-.161.515.515,0,0,0,.24-.451.5.5,0,0,0-.3-.46,1.708,1.708,0,0,0-.813-.162h-.457v-.753h.422q.993,0,.992-.579,0-.544-.762-.544a1.908,1.908,0,0,0-.993.289v-.8a3.066,3.066,0,0,1,1.248-.236,2.074,2.074,0,0,1,1.215.308.941.941,0,0,1,.434.8q0,.874-1.011,1.095v.016a1.469,1.469,0,0,1,.852.344.91.91,0,0,1,.312.7,1.146,1.146,0,0,1-.521.99,2.48,2.48,0,0,1-1.439.364A3.109,3.109,0,0,1,2902.163,1460.451Z" transform="translate(-2902.163 -1456.061)" fill="#0068b9"/>
          <path id="Trazado_765" data-name="Trazado 765" d="M2909.826,1463.127l-.521,1.575h-.873l.362-1.575Z" transform="translate(-2904.639 -1459.375)" fill="#0068b9"/>
          <path id="Trazado_766" data-name="Trazado 766" d="M2913.681,1460.675q-1.815,0-1.815-2.237a2.759,2.759,0,0,1,.491-1.769,1.722,1.722,0,0,1,1.423-.608q1.772,0,1.772,2.274a2.716,2.716,0,0,1-.484,1.736A1.675,1.675,0,0,1,2913.681,1460.675Zm.05-3.864q-.727,0-.727,1.6,0,1.509.713,1.509.694,0,.695-1.555T2913.731,1456.811Z" transform="translate(-2905.995 -1456.061)" fill="#0068b9"/>
          <path id="Trazado_767" data-name="Trazado 767" d="M2920.583,1460.675q-1.816,0-1.815-2.237a2.762,2.762,0,0,1,.491-1.769,1.723,1.723,0,0,1,1.423-.608q1.774,0,1.773,2.274a2.718,2.718,0,0,1-.484,1.736A1.674,1.674,0,0,1,2920.583,1460.675Zm.05-3.864q-.726,0-.727,1.6,0,1.509.713,1.509.7,0,.695-1.555T2920.633,1456.811Z" transform="translate(-2908.721 -1456.061)" fill="#0068b9"/>
          <path id="Trazado_768" data-name="Trazado 768" d="M2927.486,1460.675q-1.815,0-1.815-2.237a2.76,2.76,0,0,1,.491-1.769,1.723,1.723,0,0,1,1.424-.608q1.772,0,1.772,2.274a2.721,2.721,0,0,1-.483,1.736A1.677,1.677,0,0,1,2927.486,1460.675Zm.05-3.864q-.727,0-.727,1.6,0,1.509.712,1.509.7,0,.695-1.555T2927.536,1456.811Z" transform="translate(-2911.447 -1456.061)" fill="#0068b9"/>
        </g>
        <g id="Grupo_322" data-name="Grupo 322" transform="translate(1.87 271.33)">
          <path id="Trazado_769" data-name="Trazado 769" d="M2905.693,1367.624h-.61v.949h-1.021v-.949h-2.216V1367l2.135-2.888h1.1v2.813h.61Zm-1.617-2.53h-.021a3.7,3.7,0,0,1-.191.348l-1.088,1.481h1.287v-1.4Q2904.062,1365.334,2904.076,1365.094Z" transform="translate(-2901.846 -1364.037)" fill="#0068b9"/>
          <path id="Trazado_770" data-name="Trazado 770" d="M2910.143,1371.037l-.522,1.574h-.872l.361-1.574Z" transform="translate(-2904.572 -1367.285)" fill="#0068b9"/>
          <path id="Trazado_771" data-name="Trazado 771" d="M2914,1368.585q-1.815,0-1.815-2.237a2.763,2.763,0,0,1,.491-1.769,1.723,1.723,0,0,1,1.423-.608q1.773,0,1.772,2.274a2.718,2.718,0,0,1-.484,1.737A1.674,1.674,0,0,1,2914,1368.585Zm.05-3.864q-.725,0-.727,1.6,0,1.509.713,1.509.7,0,.695-1.555T2914.047,1364.721Z" transform="translate(-2905.928 -1363.971)" fill="#0068b9"/>
          <path id="Trazado_772" data-name="Trazado 772" d="M2920.9,1368.585q-1.815,0-1.815-2.237a2.764,2.764,0,0,1,.491-1.769,1.723,1.723,0,0,1,1.424-.608q1.772,0,1.773,2.274a2.719,2.719,0,0,1-.484,1.737A1.675,1.675,0,0,1,2920.9,1368.585Zm.05-3.864q-.727,0-.727,1.6,0,1.509.712,1.509.7,0,.7-1.555T2920.95,1364.721Z" transform="translate(-2908.654 -1363.971)" fill="#0068b9"/>
          <path id="Trazado_773" data-name="Trazado 773" d="M2927.8,1368.585q-1.815,0-1.815-2.237a2.762,2.762,0,0,1,.491-1.769,1.722,1.722,0,0,1,1.423-.608q1.772,0,1.773,2.274a2.719,2.719,0,0,1-.484,1.737A1.675,1.675,0,0,1,2927.8,1368.585Zm.05-3.864q-.727,0-.727,1.6,0,1.509.713,1.509.694,0,.7-1.555T2927.852,1364.721Z" transform="translate(-2911.38 -1363.971)" fill="#0068b9"/>
        </g>
        <g id="Grupo_323" data-name="Grupo 323" transform="translate(2.092 226.108)">
          <path id="Trazado_774" data-name="Trazado 774" d="M2902.213,1276.369v-.84a2.307,2.307,0,0,0,1.11.281,1.144,1.144,0,0,0,.693-.185.592.592,0,0,0,.25-.5q0-.663-1.066-.663a7.651,7.651,0,0,0-.841.056v-2.492h2.815v.8h-1.857v.893q.223-.018.422-.019a1.888,1.888,0,0,1,1.227.361,1.187,1.187,0,0,1,.443.971,1.355,1.355,0,0,1-.528,1.1,2.211,2.211,0,0,1-1.432.427A3.448,3.448,0,0,1,2902.213,1276.369Z" transform="translate(-2902.213 -1271.947)" fill="#0068b9"/>
          <path id="Trazado_775" data-name="Trazado 775" d="M2909.776,1278.947l-.521,1.574h-.872l.361-1.574Z" transform="translate(-2904.65 -1275.195)" fill="#0068b9"/>
          <path id="Trazado_776" data-name="Trazado 776" d="M2913.631,1276.5q-1.815,0-1.815-2.237a2.762,2.762,0,0,1,.491-1.769,1.722,1.722,0,0,1,1.423-.609q1.772,0,1.773,2.274a2.721,2.721,0,0,1-.484,1.736A1.675,1.675,0,0,1,2913.631,1276.5Zm.049-3.864q-.727,0-.727,1.6,0,1.509.713,1.509.694,0,.694-1.556T2913.681,1272.631Z" transform="translate(-2906.005 -1271.881)" fill="#0068b9"/>
          <path id="Trazado_777" data-name="Trazado 777" d="M2920.533,1276.5q-1.815,0-1.815-2.237a2.759,2.759,0,0,1,.492-1.769,1.722,1.722,0,0,1,1.424-.609q1.772,0,1.772,2.274a2.718,2.718,0,0,1-.483,1.736A1.676,1.676,0,0,1,2920.533,1276.5Zm.05-3.864q-.727,0-.728,1.6,0,1.509.713,1.509.7,0,.7-1.556T2920.583,1272.631Z" transform="translate(-2908.731 -1271.881)" fill="#0068b9"/>
          <path id="Trazado_778" data-name="Trazado 778" d="M2927.437,1276.5q-1.816,0-1.815-2.237a2.762,2.762,0,0,1,.491-1.769,1.722,1.722,0,0,1,1.424-.609q1.772,0,1.773,2.274a2.72,2.72,0,0,1-.484,1.736A1.674,1.674,0,0,1,2927.437,1276.5Zm.049-3.864q-.727,0-.727,1.6,0,1.509.713,1.509.694,0,.694-1.556T2927.486,1272.631Z" transform="translate(-2911.458 -1271.881)" fill="#0068b9"/>
        </g>
        <g id="Grupo_324" data-name="Grupo 324" transform="translate(1.978 180.887)">
          <path id="Trazado_779" data-name="Trazado 779" d="M2905.244,1179.913v.822a1.854,1.854,0,0,0-.843-.193,1.176,1.176,0,0,0-.909.378,1.5,1.5,0,0,0-.36,1.013h.022a1.267,1.267,0,0,1,1.067-.473,1.3,1.3,0,0,1,1.386,1.384,1.438,1.438,0,0,1-.5,1.117,1.821,1.821,0,0,1-1.262.445,1.7,1.7,0,0,1-1.34-.545,2.227,2.227,0,0,1-.482-1.528,2.667,2.667,0,0,1,.621-1.85,2.147,2.147,0,0,1,1.684-.692A2.705,2.705,0,0,1,2905.244,1179.913Zm-1.4,2.274a.649.649,0,0,0-.491.19.672.672,0,0,0-.183.485.864.864,0,0,0,.186.559.655.655,0,0,0,.978.025.794.794,0,0,0,.181-.54Q2904.511,1182.187,2903.84,1182.187Z" transform="translate(-2902.025 -1179.791)" fill="#0068b9"/>
          <path id="Trazado_780" data-name="Trazado 780" d="M2909.964,1186.858l-.521,1.574h-.873l.362-1.574Z" transform="translate(-2904.61 -1183.105)" fill="#0068b9"/>
          <path id="Trazado_781" data-name="Trazado 781" d="M2913.819,1184.406q-1.815,0-1.815-2.237a2.761,2.761,0,0,1,.491-1.769,1.722,1.722,0,0,1,1.424-.609q1.772,0,1.772,2.274a2.72,2.72,0,0,1-.483,1.736A1.676,1.676,0,0,1,2913.819,1184.406Zm.049-3.865q-.727,0-.727,1.6,0,1.509.712,1.509.7,0,.7-1.556T2913.869,1180.541Z" transform="translate(-2905.966 -1179.791)" fill="#0068b9"/>
          <path id="Trazado_782" data-name="Trazado 782" d="M2920.721,1184.406q-1.815,0-1.815-2.237a2.76,2.76,0,0,1,.491-1.769,1.722,1.722,0,0,1,1.423-.609q1.772,0,1.773,2.274a2.72,2.72,0,0,1-.484,1.736A1.675,1.675,0,0,1,2920.721,1184.406Zm.05-3.865q-.727,0-.727,1.6,0,1.509.713,1.509.694,0,.695-1.556T2920.771,1180.541Z" transform="translate(-2908.692 -1179.791)" fill="#0068b9"/>
          <path id="Trazado_783" data-name="Trazado 783" d="M2927.623,1184.406q-1.815,0-1.815-2.237a2.761,2.761,0,0,1,.491-1.769,1.721,1.721,0,0,1,1.423-.609q1.773,0,1.773,2.274a2.717,2.717,0,0,1-.484,1.736A1.674,1.674,0,0,1,2927.623,1184.406Zm.05-3.865q-.725,0-.727,1.6,0,1.509.713,1.509.7,0,.695-1.556T2927.673,1180.541Z" transform="translate(-2911.418 -1179.791)" fill="#0068b9"/>
        </g>
        <g id="Grupo_325" data-name="Grupo 325" transform="translate(1.971 135.665)">
          <path id="Trazado_784" data-name="Trazado 784" d="M2905.552,1088.3l-1.794,4.008h-1.184l1.809-3.659h-2.368v-.8h3.538Z" transform="translate(-2902.014 -1087.767)" fill="#0068b9"/>
          <path id="Trazado_785" data-name="Trazado 785" d="M2909.976,1094.768l-.522,1.575h-.872l.362-1.575Z" transform="translate(-2904.608 -1091.015)" fill="#0068b9"/>
          <path id="Trazado_786" data-name="Trazado 786" d="M2913.83,1092.316q-1.815,0-1.815-2.237a2.757,2.757,0,0,1,.492-1.769,1.721,1.721,0,0,1,1.424-.609q1.772,0,1.772,2.275a2.715,2.715,0,0,1-.484,1.736A1.674,1.674,0,0,1,2913.83,1092.316Zm.05-3.865q-.726,0-.727,1.6,0,1.509.713,1.509.7,0,.695-1.556T2913.88,1088.451Z" transform="translate(-2905.964 -1087.701)" fill="#0068b9"/>
          <path id="Trazado_787" data-name="Trazado 787" d="M2920.733,1092.316q-1.815,0-1.815-2.237a2.762,2.762,0,0,1,.491-1.769,1.722,1.722,0,0,1,1.424-.609q1.772,0,1.773,2.275a2.721,2.721,0,0,1-.484,1.736A1.675,1.675,0,0,1,2920.733,1092.316Zm.05-3.865q-.727,0-.727,1.6,0,1.509.712,1.509.7,0,.7-1.556T2920.783,1088.451Z" transform="translate(-2908.69 -1087.701)" fill="#0068b9"/>
          <path id="Trazado_788" data-name="Trazado 788" d="M2927.635,1092.316q-1.815,0-1.815-2.237a2.759,2.759,0,0,1,.491-1.769,1.72,1.72,0,0,1,1.423-.609q1.772,0,1.773,2.275a2.721,2.721,0,0,1-.484,1.736A1.676,1.676,0,0,1,2927.635,1092.316Zm.049-3.865q-.727,0-.727,1.6,0,1.509.713,1.509.694,0,.695-1.556T2927.685,1088.451Z" transform="translate(-2911.416 -1087.701)" fill="#0068b9"/>
        </g>
        <g id="Grupo_326" data-name="Grupo 326" transform="translate(1.946 90.443)">
          <path id="Trazado_789" data-name="Trazado 789" d="M2903,997.83v-.016q-.872-.315-.873-1.017a1.008,1.008,0,0,1,.468-.851,2.031,2.031,0,0,1,1.209-.335,2.08,2.08,0,0,1,1.205.313.947.947,0,0,1,.45.808q0,.731-.964,1.076v.013a1.623,1.623,0,0,1,.8.44.987.987,0,0,1,.285.689,1.074,1.074,0,0,1-.5.934,2.432,2.432,0,0,1-1.392.343,2.115,2.115,0,0,1-1.246-.335,1.035,1.035,0,0,1-.474-.885Q2901.972,998.206,2903,997.83Zm.748.373q-.713.246-.713.753a.478.478,0,0,0,.219.4.993.993,0,0,0,1.072,0,.49.49,0,0,0,.206-.411Q2904.528,998.44,2903.745,998.2Zm.66-1.388a.446.446,0,0,0-.165-.363.667.667,0,0,0-.437-.135.68.68,0,0,0-.442.142.445.445,0,0,0-.176.363q0,.417.61.631Q2904.4,997.232,2904.4,996.815Z" transform="translate(-2901.972 -995.611)" fill="#0068b9"/>
          <path id="Trazado_790" data-name="Trazado 790" d="M2910.017,1002.678l-.522,1.575h-.872l.361-1.575Z" transform="translate(-2904.599 -998.925)" fill="#0068b9"/>
          <path id="Trazado_791" data-name="Trazado 791" d="M2913.871,1000.226q-1.815,0-1.815-2.237a2.761,2.761,0,0,1,.491-1.769,1.721,1.721,0,0,1,1.423-.609q1.774,0,1.772,2.275a2.717,2.717,0,0,1-.484,1.736A1.675,1.675,0,0,1,2913.871,1000.226Zm.05-3.865q-.727,0-.727,1.6,0,1.509.713,1.509.7,0,.7-1.556T2913.921,996.361Z" transform="translate(-2905.955 -995.611)" fill="#0068b9"/>
          <path id="Trazado_792" data-name="Trazado 792" d="M2920.774,1000.226q-1.815,0-1.815-2.237a2.762,2.762,0,0,1,.491-1.769,1.722,1.722,0,0,1,1.424-.609q1.773,0,1.773,2.275a2.72,2.72,0,0,1-.484,1.736A1.675,1.675,0,0,1,2920.774,1000.226Zm.05-3.865q-.727,0-.727,1.6,0,1.509.712,1.509.7,0,.7-1.556T2920.824,996.361Z" transform="translate(-2908.681 -995.611)" fill="#0068b9"/>
          <path id="Trazado_793" data-name="Trazado 793" d="M2927.676,1000.226q-1.815,0-1.815-2.237a2.759,2.759,0,0,1,.491-1.769,1.721,1.721,0,0,1,1.423-.609q1.773,0,1.773,2.275a2.72,2.72,0,0,1-.484,1.736A1.675,1.675,0,0,1,2927.676,1000.226Zm.05-3.865q-.727,0-.727,1.6,0,1.509.713,1.509.694,0,.7-1.556T2927.726,996.361Z" transform="translate(-2911.407 -995.611)" fill="#0068b9"/>
        </g>
        <g id="Grupo_327" data-name="Grupo 327" transform="translate(1.939 48.903)">
          <path id="Trazado_794" data-name="Trazado 794" d="M2902.251,907.962v-.809a1.908,1.908,0,0,0,.965.23,1.173,1.173,0,0,0,.909-.35,1.434,1.434,0,0,0,.324-.994l-.021-.006a1.21,1.21,0,0,1-1.025.439,1.453,1.453,0,0,1-1.033-.383,1.3,1.3,0,0,1-.409-.992,1.434,1.434,0,0,1,.5-1.143,1.912,1.912,0,0,1,1.294-.431,1.656,1.656,0,0,1,1.3.541,2.253,2.253,0,0,1,.484,1.55,2.723,2.723,0,0,1-.583,1.859,2.053,2.053,0,0,1-1.628.664A3,3,0,0,1,2902.251,907.962Zm1.472-3.69a.619.619,0,0,0-.479.207.764.764,0,0,0-.188.534.74.74,0,0,0,.187.534.665.665,0,0,0,.505.194.642.642,0,0,0,.475-.185.634.634,0,0,0,.185-.465.886.886,0,0,0-.194-.585A.609.609,0,0,0,2903.723,904.272Z" transform="translate(-2901.961 -903.522)" fill="#0068b9"/>
          <path id="Trazado_795" data-name="Trazado 795" d="M2910.028,910.588l-.521,1.574h-.872l.361-1.574Z" transform="translate(-2904.597 -906.836)" fill="#0068b9"/>
          <path id="Trazado_796" data-name="Trazado 796" d="M2913.883,908.136q-1.815,0-1.815-2.237a2.763,2.763,0,0,1,.491-1.769,1.722,1.722,0,0,1,1.423-.608q1.772,0,1.773,2.274a2.72,2.72,0,0,1-.484,1.736A1.676,1.676,0,0,1,2913.883,908.136Zm.049-3.864q-.727,0-.727,1.6,0,1.51.713,1.509.694,0,.694-1.556T2913.933,904.272Z" transform="translate(-2905.953 -903.522)" fill="#0068b9"/>
          <path id="Trazado_797" data-name="Trazado 797" d="M2920.785,908.136q-1.815,0-1.815-2.237a2.759,2.759,0,0,1,.492-1.769,1.721,1.721,0,0,1,1.424-.608q1.772,0,1.772,2.274a2.714,2.714,0,0,1-.484,1.736A1.674,1.674,0,0,1,2920.785,908.136Zm.05-3.864q-.727,0-.727,1.6,0,1.51.713,1.509.7,0,.7-1.556T2920.835,904.272Z" transform="translate(-2908.678 -903.522)" fill="#0068b9"/>
          <path id="Trazado_798" data-name="Trazado 798" d="M2927.688,908.136q-1.815,0-1.815-2.237a2.763,2.763,0,0,1,.491-1.769,1.723,1.723,0,0,1,1.424-.608q1.772,0,1.773,2.274a2.719,2.719,0,0,1-.484,1.736A1.675,1.675,0,0,1,2927.688,908.136Zm.05-3.864q-.727,0-.727,1.6,0,1.51.712,1.509.7,0,.7-1.556T2927.738,904.272Z" transform="translate(-2911.405 -903.522)" fill="#0068b9"/>
        </g>
        <g id="Grupo_328" data-name="Grupo 328">
          <path id="Trazado_799" data-name="Trazado 799" d="M2902,815.969h-3.215v-.778h1.053v-2.779l-1.081.206v-.8l2.2-.389v3.759H2902Z" transform="translate(-2898.756 -811.432)" fill="#0068b9"/>
          <path id="Trazado_800" data-name="Trazado 800" d="M2906.934,816.046q-1.815,0-1.815-2.237a2.757,2.757,0,0,1,.491-1.769,1.72,1.72,0,0,1,1.423-.608q1.773,0,1.773,2.274a2.717,2.717,0,0,1-.484,1.736A1.676,1.676,0,0,1,2906.934,816.046Zm.05-3.864q-.727,0-.727,1.6,0,1.51.713,1.509.694,0,.695-1.556T2906.984,812.182Z" transform="translate(-2901.269 -811.432)" fill="#0068b9"/>
          <path id="Trazado_801" data-name="Trazado 801" d="M2913.233,818.5l-.521,1.575h-.872l.361-1.575Z" transform="translate(-2903.924 -814.746)" fill="#0068b9"/>
          <path id="Trazado_802" data-name="Trazado 802" d="M2917.088,816.046q-1.815,0-1.815-2.237a2.763,2.763,0,0,1,.491-1.769,1.721,1.721,0,0,1,1.423-.608q1.772,0,1.773,2.274a2.719,2.719,0,0,1-.484,1.736A1.675,1.675,0,0,1,2917.088,816.046Zm.05-3.864q-.726,0-.727,1.6,0,1.51.713,1.509.694,0,.695-1.556T2917.138,812.182Z" transform="translate(-2905.279 -811.432)" fill="#0068b9"/>
          <path id="Trazado_803" data-name="Trazado 803" d="M2923.991,816.046q-1.815,0-1.815-2.237a2.76,2.76,0,0,1,.491-1.769,1.721,1.721,0,0,1,1.424-.608q1.772,0,1.772,2.274a2.714,2.714,0,0,1-.484,1.736A1.674,1.674,0,0,1,2923.991,816.046Zm.05-3.864q-.727,0-.727,1.6,0,1.51.713,1.509.7,0,.7-1.556T2924.041,812.182Z" transform="translate(-2908.006 -811.432)" fill="#0068b9"/>
          <path id="Trazado_804" data-name="Trazado 804" d="M2930.893,816.046q-1.815,0-1.815-2.237a2.76,2.76,0,0,1,.491-1.769,1.723,1.723,0,0,1,1.424-.608q1.773,0,1.773,2.274a2.717,2.717,0,0,1-.484,1.736A1.675,1.675,0,0,1,2930.893,816.046Zm.05-3.864q-.727,0-.727,1.6,0,1.51.713,1.509.694,0,.695-1.556T2930.942,812.182Z" transform="translate(-2910.731 -811.432)" fill="#0068b9"/>
        </g>
      </g>
      <g id="Grupo_350" data-name="Grupo 350" transform="translate(16.816 477.722)" style="mix-blend-mode: screen;isolation: isolate">
        <g id="Grupo_330" data-name="Grupo 330">
          <path id="Trazado_805" data-name="Trazado 805" d="M95.864,1736.8H92.648v-.778H93.7v-2.778l-1.081.2v-.8l2.2-.389v3.759h1.046Z" transform="translate(-92.62 -1732.263)" fill="#0068b9"/>
          <path id="Trazado_806" data-name="Trazado 806" d="M100.8,1736.877q-1.815,0-1.815-2.237a2.762,2.762,0,0,1,.491-1.769,1.723,1.723,0,0,1,1.423-.608q1.773,0,1.773,2.274a2.721,2.721,0,0,1-.484,1.737A1.677,1.677,0,0,1,100.8,1736.877Zm.05-3.864q-.727,0-.727,1.6,0,1.509.713,1.509.694,0,.695-1.555T100.848,1733.013Z" transform="translate(-95.133 -1732.263)" fill="#0068b9"/>
        </g>
        <g id="Grupo_331" data-name="Grupo 331" transform="translate(84.074)">
          <path id="Trazado_807" data-name="Trazado 807" d="M232.855,1735.965v.019h2.063v.815h-3.347v-.766l1.457-1.223a3.784,3.784,0,0,0,.619-.621.9.9,0,0,0,.179-.528q0-.616-.755-.616a2.042,2.042,0,0,0-1.255.458v-.865a2.975,2.975,0,0,1,1.5-.377,1.93,1.93,0,0,1,1.218.344,1.12,1.12,0,0,1,.437.929,2.231,2.231,0,0,1-1.067,1.615Z" transform="translate(-231.572 -1732.263)" fill="#0068b9"/>
          <path id="Trazado_808" data-name="Trazado 808" d="M240.061,1736.877q-1.815,0-1.815-2.237a2.762,2.762,0,0,1,.491-1.769,1.724,1.724,0,0,1,1.424-.608q1.772,0,1.773,2.274a2.721,2.721,0,0,1-.484,1.737A1.677,1.677,0,0,1,240.061,1736.877Zm.05-3.864q-.727,0-.727,1.6,0,1.509.712,1.509.7,0,.7-1.555T240.111,1733.013Z" transform="translate(-234.208 -1732.263)" fill="#0068b9"/>
        </g>
        <g id="Grupo_332" data-name="Grupo 332" transform="translate(168.179)">
          <path id="Trazado_809" data-name="Trazado 809" d="M370.575,1736.653v-.856a2.163,2.163,0,0,0,1.191.327,1.184,1.184,0,0,0,.669-.161.516.516,0,0,0,.239-.451.5.5,0,0,0-.3-.46,1.71,1.71,0,0,0-.814-.162h-.457v-.753h.422q.992,0,.992-.579,0-.544-.762-.544a1.9,1.9,0,0,0-.993.289v-.8a3.063,3.063,0,0,1,1.248-.236,2.07,2.07,0,0,1,1.214.308.939.939,0,0,1,.434.8q0,.874-1.01,1.095v.016a1.46,1.46,0,0,1,.851.344.909.909,0,0,1,.312.7,1.146,1.146,0,0,1-.521.99,2.483,2.483,0,0,1-1.439.364A3.113,3.113,0,0,1,370.575,1736.653Z" transform="translate(-370.575 -1732.263)" fill="#0068b9"/>
          <path id="Trazado_810" data-name="Trazado 810" d="M378.842,1736.877q-1.815,0-1.815-2.237a2.762,2.762,0,0,1,.491-1.769,1.723,1.723,0,0,1,1.424-.608q1.773,0,1.772,2.274a2.721,2.721,0,0,1-.483,1.737A1.677,1.677,0,0,1,378.842,1736.877Zm.05-3.864q-.727,0-.727,1.6,0,1.509.712,1.509.7,0,.7-1.555T378.892,1733.013Z" transform="translate(-373.123 -1732.263)" fill="#0068b9"/>
        </g>
        <g id="Grupo_333" data-name="Grupo 333" transform="translate(251.554)">
          <path id="Trazado_811" data-name="Trazado 811" d="M512.219,1735.916h-.61v.949h-1.021v-.949h-2.216v-.625l2.134-2.888h1.1v2.813h.61Zm-1.617-2.53h-.021a3.7,3.7,0,0,1-.191.348l-1.089,1.481h1.287v-1.4C510.589,1733.688,510.594,1733.546,510.6,1733.386Z" transform="translate(-508.373 -1732.329)" fill="#0068b9"/>
          <path id="Trazado_812" data-name="Trazado 812" d="M517.272,1736.877q-1.815,0-1.815-2.237a2.761,2.761,0,0,1,.491-1.769,1.723,1.723,0,0,1,1.424-.608q1.772,0,1.772,2.274a2.721,2.721,0,0,1-.483,1.737A1.678,1.678,0,0,1,517.272,1736.877Zm.05-3.864q-.727,0-.727,1.6,0,1.509.712,1.509.7,0,.7-1.555T517.322,1733.013Z" transform="translate(-511.171 -1732.263)" fill="#0068b9"/>
        </g>
        <g id="Grupo_334" data-name="Grupo 334" transform="translate(363.959)">
          <path id="Trazado_813" data-name="Trazado 813" d="M647.883,1736.75v-.84a2.3,2.3,0,0,0,1.11.28,1.144,1.144,0,0,0,.693-.185.594.594,0,0,0,.25-.5q0-.663-1.067-.663a7.628,7.628,0,0,0-.84.056V1732.4h2.815v.8h-1.857v.893c.149-.013.289-.019.422-.019a1.889,1.889,0,0,1,1.226.361,1.186,1.186,0,0,1,.443.971,1.356,1.356,0,0,1-.528,1.1,2.211,2.211,0,0,1-1.432.427A3.444,3.444,0,0,1,647.883,1736.75Z" transform="translate(-647.883 -1732.329)" fill="#0068b9"/>
          <path id="Trazado_814" data-name="Trazado 814" d="M656.049,1736.877q-1.815,0-1.815-2.237a2.762,2.762,0,0,1,.491-1.769,1.723,1.723,0,0,1,1.423-.608q1.773,0,1.773,2.274a2.72,2.72,0,0,1-.484,1.737A1.677,1.677,0,0,1,656.049,1736.877Zm.05-3.864q-.727,0-.727,1.6,0,1.509.713,1.509.694,0,.695-1.555T656.1,1733.013Z" transform="translate(-650.391 -1732.263)" fill="#0068b9"/>
        </g>
        <g id="Grupo_335" data-name="Grupo 335" transform="translate(454.914)">
          <path id="Trazado_815" data-name="Trazado 815" d="M789.857,1732.384v.822a1.866,1.866,0,0,0-.844-.193,1.173,1.173,0,0,0-.909.378,1.491,1.491,0,0,0-.359,1.013h.021a1.265,1.265,0,0,1,1.067-.473,1.357,1.357,0,0,1,1.012.38,1.371,1.371,0,0,1,.374,1.005,1.435,1.435,0,0,1-.5,1.117,1.818,1.818,0,0,1-1.262.445,1.7,1.7,0,0,1-1.34-.544,2.229,2.229,0,0,1-.482-1.528,2.667,2.667,0,0,1,.621-1.85,2.145,2.145,0,0,1,1.684-.693A2.732,2.732,0,0,1,789.857,1732.384Zm-1.4,2.274a.65.65,0,0,0-.491.19.672.672,0,0,0-.183.485.865.865,0,0,0,.186.559.6.6,0,0,0,.494.232.609.609,0,0,0,.482-.207.792.792,0,0,0,.181-.54Q789.124,1734.659,788.453,1734.658Z" transform="translate(-786.638 -1732.263)" fill="#0068b9"/>
          <path id="Trazado_816" data-name="Trazado 816" d="M795.18,1736.877q-1.815,0-1.815-2.237a2.761,2.761,0,0,1,.491-1.769,1.723,1.723,0,0,1,1.423-.608q1.773,0,1.773,2.274a2.72,2.72,0,0,1-.484,1.737A1.676,1.676,0,0,1,795.18,1736.877Zm.05-3.864q-.727,0-.727,1.6,0,1.509.713,1.509.694,0,.695-1.555T795.23,1733.013Z" transform="translate(-789.295 -1732.263)" fill="#0068b9"/>
        </g>
        <g id="Grupo_336" data-name="Grupo 336" transform="translate(545.54)">
          <path id="Trazado_817" data-name="Trazado 817" d="M928.435,1732.858l-1.794,4.008h-1.184l1.808-3.659H924.9v-.8h3.538Z" transform="translate(-924.897 -1732.329)" fill="#0068b9"/>
          <path id="Trazado_818" data-name="Trazado 818" d="M933.462,1736.877q-1.815,0-1.815-2.237a2.762,2.762,0,0,1,.491-1.769,1.723,1.723,0,0,1,1.423-.608q1.774,0,1.773,2.274a2.721,2.721,0,0,1-.484,1.737A1.677,1.677,0,0,1,933.462,1736.877Zm.05-3.864q-.726,0-.727,1.6,0,1.509.713,1.509.7,0,.695-1.555T933.512,1733.013Z" transform="translate(-927.563 -1732.263)" fill="#0068b9"/>
        </g>
        <g id="Grupo_337" data-name="Grupo 337" transform="translate(636.867)">
          <path id="Trazado_819" data-name="Trazado 819" d="M1065.248,1734.482v-.016q-.872-.314-.872-1.017a1.008,1.008,0,0,1,.468-.851,2.033,2.033,0,0,1,1.209-.334,2.075,2.075,0,0,1,1.205.313.946.946,0,0,1,.45.807q0,.731-.964,1.077v.013a1.621,1.621,0,0,1,.8.44.987.987,0,0,1,.286.689,1.076,1.076,0,0,1-.5.934,2.435,2.435,0,0,1-1.391.342,2.114,2.114,0,0,1-1.246-.335,1.033,1.033,0,0,1-.473-.885Q1064.224,1734.858,1065.248,1734.482Zm.748.373q-.712.245-.712.753a.48.48,0,0,0,.218.4.994.994,0,0,0,1.072,0,.489.489,0,0,0,.206-.411Q1066.78,1735.091,1066,1734.855Zm.66-1.388a.445.445,0,0,0-.165-.362.669.669,0,0,0-.438-.135.679.679,0,0,0-.441.142.443.443,0,0,0-.175.362q0,.417.609.631Q1066.656,1733.884,1066.656,1733.467Z" transform="translate(-1064.224 -1732.263)" fill="#0068b9"/>
          <path id="Trazado_820" data-name="Trazado 820" d="M1072.871,1736.877q-1.815,0-1.815-2.237a2.763,2.763,0,0,1,.491-1.769,1.724,1.724,0,0,1,1.424-.608q1.772,0,1.772,2.274a2.721,2.721,0,0,1-.483,1.737A1.678,1.678,0,0,1,1072.871,1736.877Zm.049-3.864q-.727,0-.727,1.6,0,1.509.713,1.509.7,0,.7-1.555T1072.921,1733.013Z" transform="translate(-1066.922 -1732.263)" fill="#0068b9"/>
        </g>
        <g id="Grupo_338" data-name="Grupo 338" transform="translate(727.34)">
          <path id="Trazado_821" data-name="Trazado 821" d="M1202.539,1736.7v-.809a1.906,1.906,0,0,0,.964.23,1.171,1.171,0,0,0,.909-.35,1.428,1.428,0,0,0,.324-.994l-.021-.006a1.21,1.21,0,0,1-1.024.439,1.455,1.455,0,0,1-1.033-.383,1.3,1.3,0,0,1-.41-.993,1.435,1.435,0,0,1,.5-1.144,1.912,1.912,0,0,1,1.294-.431,1.657,1.657,0,0,1,1.3.541,2.251,2.251,0,0,1,.484,1.55,2.724,2.724,0,0,1-.583,1.859,2.052,2.052,0,0,1-1.629.664A2.988,2.988,0,0,1,1202.539,1736.7Zm1.472-3.69a.618.618,0,0,0-.479.207.762.762,0,0,0-.188.533.74.74,0,0,0,.186.534.667.667,0,0,0,.505.195.643.643,0,0,0,.475-.185.632.632,0,0,0,.185-.465.887.887,0,0,0-.194-.585A.609.609,0,0,0,1204.011,1733.013Z" transform="translate(-1202.249 -1732.263)" fill="#0068b9"/>
          <path id="Trazado_822" data-name="Trazado 822" d="M1210.919,1736.877q-1.815,0-1.815-2.237a2.762,2.762,0,0,1,.491-1.769,1.723,1.723,0,0,1,1.423-.608q1.772,0,1.773,2.274a2.717,2.717,0,0,1-.484,1.737A1.676,1.676,0,0,1,1210.919,1736.877Zm.05-3.864q-.726,0-.727,1.6,0,1.509.713,1.509.7,0,.695-1.555T1210.969,1733.013Z" transform="translate(-1204.956 -1732.263)" fill="#0068b9"/>
        </g>
        <g id="Grupo_339" data-name="Grupo 339" transform="translate(816.7)">
          <path id="Trazado_823" data-name="Trazado 823" d="M1341.586,1736.8h-3.215v-.778h1.053v-2.778l-1.081.2v-.8l2.2-.389v3.759h1.046Z" transform="translate(-1338.342 -1732.263)" fill="#0068b9"/>
          <path id="Trazado_824" data-name="Trazado 824" d="M1346.52,1736.877q-1.815,0-1.815-2.237a2.761,2.761,0,0,1,.491-1.769,1.723,1.723,0,0,1,1.423-.608q1.774,0,1.773,2.274a2.718,2.718,0,0,1-.484,1.737A1.677,1.677,0,0,1,1346.52,1736.877Zm.049-3.864q-.726,0-.727,1.6,0,1.509.713,1.509.7,0,.695-1.555T1346.57,1733.013Z" transform="translate(-1340.855 -1732.263)" fill="#0068b9"/>
          <path id="Trazado_825" data-name="Trazado 825" d="M1353.423,1736.877q-1.815,0-1.815-2.237a2.762,2.762,0,0,1,.491-1.769,1.723,1.723,0,0,1,1.424-.608q1.772,0,1.772,2.274a2.72,2.72,0,0,1-.484,1.737A1.677,1.677,0,0,1,1353.423,1736.877Zm.05-3.864q-.727,0-.727,1.6,0,1.509.712,1.509.7,0,.7-1.555T1353.473,1733.013Z" transform="translate(-1343.581 -1732.263)" fill="#0068b9"/>
        </g>
        <g id="Grupo_340" data-name="Grupo 340" transform="translate(907.743)">
          <path id="Trazado_826" data-name="Trazado 826" d="M1480.456,1736.8h-3.215v-.778h1.053v-2.778l-1.081.2v-.8l2.2-.389v3.759h1.045Z" transform="translate(-1477.212 -1732.263)" fill="#0068b9"/>
          <path id="Trazado_827" data-name="Trazado 827" d="M1487.358,1736.8h-3.216v-.778h1.053v-2.778l-1.081.2v-.8l2.2-.389v3.759h1.046Z" transform="translate(-1479.938 -1732.263)" fill="#0068b9"/>
          <path id="Trazado_828" data-name="Trazado 828" d="M1492.293,1736.877q-1.815,0-1.815-2.237a2.761,2.761,0,0,1,.491-1.769,1.723,1.723,0,0,1,1.424-.608q1.773,0,1.772,2.274a2.718,2.718,0,0,1-.484,1.737A1.675,1.675,0,0,1,1492.293,1736.877Zm.05-3.864q-.727,0-.728,1.6,0,1.509.713,1.509.7,0,.7-1.555T1492.343,1733.013Z" transform="translate(-1482.451 -1732.263)" fill="#0068b9"/>
        </g>
        <g id="Grupo_341" data-name="Grupo 341" transform="translate(998.433)">
          <path id="Trazado_829" data-name="Trazado 829" d="M1618.786,1736.8h-3.216v-.778h1.053v-2.778l-1.081.2v-.8l2.2-.389v3.759h1.046Z" transform="translate(-1615.542 -1732.263)" fill="#0068b9"/>
          <path id="Trazado_830" data-name="Trazado 830" d="M1623.417,1735.965v.019h2.063v.815h-3.347v-.766l1.457-1.223a3.767,3.767,0,0,0,.619-.621.9.9,0,0,0,.179-.528q0-.616-.755-.616a2.042,2.042,0,0,0-1.255.458v-.865a2.975,2.975,0,0,1,1.5-.377,1.93,1.93,0,0,1,1.218.344,1.119,1.119,0,0,1,.438.929,2.231,2.231,0,0,1-1.067,1.615Z" transform="translate(-1618.146 -1732.263)" fill="#0068b9"/>
          <path id="Trazado_831" data-name="Trazado 831" d="M1630.623,1736.877q-1.815,0-1.815-2.237a2.761,2.761,0,0,1,.491-1.769,1.725,1.725,0,0,1,1.424-.608q1.772,0,1.773,2.274a2.722,2.722,0,0,1-.484,1.737A1.677,1.677,0,0,1,1630.623,1736.877Zm.05-3.864q-.727,0-.727,1.6,0,1.509.713,1.509.694,0,.695-1.555T1630.673,1733.013Z" transform="translate(-1620.781 -1732.263)" fill="#0068b9"/>
        </g>
        <g id="Grupo_342" data-name="Grupo 342" transform="translate(1089.823)">
          <path id="Trazado_832" data-name="Trazado 832" d="M1758.184,1736.8h-3.216v-.778h1.053v-2.778l-1.081.2v-.8l2.2-.389v3.759h1.046Z" transform="translate(-1754.94 -1732.263)" fill="#0068b9"/>
          <path id="Trazado_833" data-name="Trazado 833" d="M1761.755,1736.653v-.856a2.16,2.16,0,0,0,1.191.327,1.184,1.184,0,0,0,.669-.161.514.514,0,0,0,.239-.451.5.5,0,0,0-.3-.46,1.71,1.71,0,0,0-.814-.162h-.457v-.753h.422q.993,0,.992-.579,0-.544-.762-.544a1.9,1.9,0,0,0-.993.289v-.8a3.063,3.063,0,0,1,1.248-.236,2.069,2.069,0,0,1,1.214.308.94.94,0,0,1,.434.8q0,.874-1.01,1.095v.016a1.46,1.46,0,0,1,.851.344.908.908,0,0,1,.312.7,1.146,1.146,0,0,1-.521.99,2.48,2.48,0,0,1-1.439.364A3.11,3.11,0,0,1,1761.755,1736.653Z" transform="translate(-1757.631 -1732.263)" fill="#0068b9"/>
          <path id="Trazado_834" data-name="Trazado 834" d="M1770.021,1736.877q-1.815,0-1.815-2.237a2.761,2.761,0,0,1,.491-1.769,1.724,1.724,0,0,1,1.424-.608q1.773,0,1.773,2.274a2.722,2.722,0,0,1-.484,1.737A1.676,1.676,0,0,1,1770.021,1736.877Zm.05-3.864q-.727,0-.727,1.6,0,1.509.712,1.509.7,0,.7-1.555T1770.071,1733.013Z" transform="translate(-1760.179 -1732.263)" fill="#0068b9"/>
        </g>
        <g id="Grupo_343" data-name="Grupo 343" transform="translate(1180.009)">
          <path id="Trazado_835" data-name="Trazado 835" d="M1895.746,1736.8h-3.216v-.778h1.053v-2.778l-1.081.2v-.8l2.2-.389v3.759h1.046Z" transform="translate(-1892.502 -1732.263)" fill="#0068b9"/>
          <path id="Trazado_836" data-name="Trazado 836" d="M1902.53,1735.916h-.61v.949H1900.9v-.949h-2.216v-.625l2.134-2.888h1.1v2.813h.61Zm-1.617-2.53h-.021a3.721,3.721,0,0,1-.191.348l-1.089,1.481h1.287v-1.4C1900.9,1733.688,1900.9,1733.546,1900.914,1733.386Z" transform="translate(-1894.943 -1732.329)" fill="#0068b9"/>
          <path id="Trazado_837" data-name="Trazado 837" d="M1907.583,1736.877q-1.815,0-1.815-2.237a2.763,2.763,0,0,1,.491-1.769,1.723,1.723,0,0,1,1.424-.608q1.773,0,1.772,2.274a2.718,2.718,0,0,1-.484,1.737A1.675,1.675,0,0,1,1907.583,1736.877Zm.05-3.864q-.727,0-.727,1.6,0,1.509.713,1.509.7,0,.7-1.555T1907.633,1733.013Z" transform="translate(-1897.741 -1732.263)" fill="#0068b9"/>
        </g>
        <g id="Grupo_344" data-name="Grupo 344" transform="translate(1271.631)">
          <path id="Trazado_838" data-name="Trazado 838" d="M2035.5,1736.8h-3.215v-.778h1.053v-2.778l-1.081.2v-.8l2.2-.389v3.759h1.045Z" transform="translate(-2032.255 -1732.263)" fill="#0068b9"/>
          <path id="Trazado_839" data-name="Trazado 839" d="M2039.169,1736.75v-.84a2.306,2.306,0,0,0,1.11.28,1.148,1.148,0,0,0,.693-.185.594.594,0,0,0,.25-.5q0-.663-1.067-.663a7.628,7.628,0,0,0-.84.056V1732.4h2.815v.8h-1.858v.893c.149-.013.29-.019.422-.019a1.888,1.888,0,0,1,1.226.361,1.187,1.187,0,0,1,.443.971,1.356,1.356,0,0,1-.528,1.1,2.211,2.211,0,0,1-1.432.427A3.445,3.445,0,0,1,2039.169,1736.75Z" transform="translate(-2034.986 -1732.329)" fill="#0068b9"/>
          <path id="Trazado_840" data-name="Trazado 840" d="M2047.336,1736.877q-1.815,0-1.815-2.237a2.762,2.762,0,0,1,.49-1.769,1.724,1.724,0,0,1,1.424-.608q1.773,0,1.772,2.274a2.722,2.722,0,0,1-.483,1.737A1.677,1.677,0,0,1,2047.336,1736.877Zm.05-3.864q-.727,0-.727,1.6,0,1.509.712,1.509.7,0,.695-1.555T2047.386,1733.013Z" transform="translate(-2037.494 -1732.263)" fill="#0068b9"/>
        </g>
        <g id="Grupo_345" data-name="Grupo 345" transform="translate(1362.667)">
          <path id="Trazado_841" data-name="Trazado 841" d="M2174.357,1736.8h-3.216v-.778h1.053v-2.778l-1.082.2v-.8l2.2-.389v3.759h1.046Z" transform="translate(-2171.113 -1732.263)" fill="#0068b9"/>
          <path id="Trazado_842" data-name="Trazado 842" d="M2180.872,1732.384v.822a1.866,1.866,0,0,0-.844-.193,1.174,1.174,0,0,0-.909.378,1.493,1.493,0,0,0-.359,1.013h.021a1.265,1.265,0,0,1,1.067-.473,1.356,1.356,0,0,1,1.011.38,1.371,1.371,0,0,1,.375,1.005,1.437,1.437,0,0,1-.5,1.117,1.819,1.819,0,0,1-1.262.445,1.7,1.7,0,0,1-1.34-.544,2.231,2.231,0,0,1-.481-1.528,2.666,2.666,0,0,1,.62-1.85,2.145,2.145,0,0,1,1.684-.693A2.726,2.726,0,0,1,2180.872,1732.384Zm-1.4,2.274a.652.652,0,0,0-.491.19.67.67,0,0,0-.182.485.866.866,0,0,0,.186.559.6.6,0,0,0,.494.232.61.61,0,0,0,.482-.207.793.793,0,0,0,.181-.54Q2180.138,1734.659,2179.468,1734.658Z" transform="translate(-2173.696 -1732.263)" fill="#0068b9"/>
          <path id="Trazado_843" data-name="Trazado 843" d="M2186.194,1736.877q-1.815,0-1.815-2.237a2.763,2.763,0,0,1,.491-1.769,1.723,1.723,0,0,1,1.423-.608q1.772,0,1.773,2.274a2.722,2.722,0,0,1-.484,1.737A1.678,1.678,0,0,1,2186.194,1736.877Zm.05-3.864q-.727,0-.727,1.6,0,1.509.713,1.509.694,0,.695-1.555T2186.244,1733.013Z" transform="translate(-2176.352 -1732.263)" fill="#0068b9"/>
        </g>
        <g id="Grupo_346" data-name="Grupo 346" transform="translate(1474.392)">
          <path id="Trazado_844" data-name="Trazado 844" d="M2312.661,1736.8h-3.216v-.778h1.053v-2.778l-1.082.2v-.8l2.2-.389v3.759h1.046Z" transform="translate(-2309.417 -1732.263)" fill="#0068b9"/>
          <path id="Trazado_845" data-name="Trazado 845" d="M2319.471,1732.858l-1.794,4.008h-1.184l1.808-3.659h-2.368v-.8h3.538Z" transform="translate(-2311.99 -1732.329)" fill="#0068b9"/>
          <path id="Trazado_846" data-name="Trazado 846" d="M2324.5,1736.877q-1.815,0-1.815-2.237a2.76,2.76,0,0,1,.491-1.769,1.723,1.723,0,0,1,1.424-.608q1.772,0,1.773,2.274a2.721,2.721,0,0,1-.484,1.737A1.676,1.676,0,0,1,2324.5,1736.877Zm.049-3.864q-.726,0-.727,1.6,0,1.509.712,1.509.7,0,.7-1.555T2324.548,1733.013Z" transform="translate(-2314.656 -1732.263)" fill="#0068b9"/>
        </g>
        <g id="Grupo_347" data-name="Grupo 347" transform="translate(1558.401)">
          <path id="Trazado_847" data-name="Trazado 847" d="M2451.505,1736.8h-3.216v-.778h1.052v-2.778l-1.081.2v-.8l2.2-.389v3.759h1.046Z" transform="translate(-2448.261 -1732.263)" fill="#0068b9"/>
          <path id="Trazado_848" data-name="Trazado 848" d="M2455.719,1734.482v-.016q-.872-.314-.872-1.017a1.01,1.01,0,0,1,.468-.851,2.033,2.033,0,0,1,1.209-.334,2.078,2.078,0,0,1,1.206.313.946.946,0,0,1,.45.807q0,.731-.965,1.077v.013a1.616,1.616,0,0,1,.8.44.983.983,0,0,1,.286.689,1.077,1.077,0,0,1-.5.934,2.438,2.438,0,0,1-1.392.342,2.116,2.116,0,0,1-1.246-.335,1.034,1.034,0,0,1-.473-.885Q2454.7,1734.858,2455.719,1734.482Zm.749.373q-.713.245-.713.753a.48.48,0,0,0,.218.4,1,1,0,0,0,1.073,0,.491.491,0,0,0,.206-.411Q2457.251,1735.091,2456.468,1734.855Zm.659-1.388a.442.442,0,0,0-.165-.362.667.667,0,0,0-.438-.135.68.68,0,0,0-.441.142.445.445,0,0,0-.175.362q0,.417.61.631Q2457.127,1733.884,2457.126,1733.467Z" transform="translate(-2450.802 -1732.263)" fill="#0068b9"/>
          <path id="Trazado_849" data-name="Trazado 849" d="M2463.342,1736.877q-1.815,0-1.815-2.237a2.76,2.76,0,0,1,.491-1.769,1.722,1.722,0,0,1,1.423-.608q1.772,0,1.773,2.274a2.719,2.719,0,0,1-.484,1.737A1.677,1.677,0,0,1,2463.342,1736.877Zm.05-3.864q-.727,0-.727,1.6,0,1.509.713,1.509.695,0,.695-1.555T2463.392,1733.013Z" transform="translate(-2453.501 -1732.263)" fill="#0068b9"/>
        </g>
        <g id="Grupo_348" data-name="Grupo 348" transform="translate(1642.175)">
          <path id="Trazado_850" data-name="Trazado 850" d="M2589.962,1736.8h-3.216v-.778h1.053v-2.778l-1.081.2v-.8l2.2-.389v3.759h1.046Z" transform="translate(-2586.718 -1732.263)" fill="#0068b9"/>
          <path id="Trazado_851" data-name="Trazado 851" d="M2593.419,1736.7v-.809a1.906,1.906,0,0,0,.964.23,1.171,1.171,0,0,0,.91-.35,1.432,1.432,0,0,0,.324-.994l-.021-.006a1.21,1.21,0,0,1-1.025.439,1.456,1.456,0,0,1-1.034-.383,1.3,1.3,0,0,1-.409-.993,1.435,1.435,0,0,1,.5-1.144,1.909,1.909,0,0,1,1.294-.431,1.658,1.658,0,0,1,1.3.541,2.254,2.254,0,0,1,.484,1.55,2.727,2.727,0,0,1-.583,1.859,2.053,2.053,0,0,1-1.629.664A2.99,2.99,0,0,1,2593.419,1736.7Zm1.472-3.69a.617.617,0,0,0-.479.207.762.762,0,0,0-.188.533.74.74,0,0,0,.187.534.666.666,0,0,0,.505.195.642.642,0,0,0,.475-.185.632.632,0,0,0,.184-.465.885.885,0,0,0-.194-.585A.609.609,0,0,0,2594.891,1733.013Z" transform="translate(-2589.25 -1732.263)" fill="#0068b9"/>
          <path id="Trazado_852" data-name="Trazado 852" d="M2601.8,1736.877q-1.815,0-1.815-2.237a2.76,2.76,0,0,1,.491-1.769,1.723,1.723,0,0,1,1.423-.608q1.772,0,1.773,2.274a2.724,2.724,0,0,1-.484,1.737A1.678,1.678,0,0,1,2601.8,1736.877Zm.05-3.864q-.727,0-.727,1.6,0,1.509.713,1.509.694,0,.694-1.555T2601.849,1733.013Z" transform="translate(-2591.957 -1732.263)" fill="#0068b9"/>
        </g>
        <g id="Grupo_349" data-name="Grupo 349" transform="translate(1726.207)">
          <path id="Trazado_853" data-name="Trazado 853" d="M2726.883,1735.965v.019h2.063v.815H2725.6v-.766l1.457-1.223a3.782,3.782,0,0,0,.619-.621.893.893,0,0,0,.178-.528c0-.411-.251-.616-.755-.616a2.041,2.041,0,0,0-1.255.458v-.865a2.977,2.977,0,0,1,1.5-.377,1.929,1.929,0,0,1,1.218.344,1.119,1.119,0,0,1,.438.929,2.231,2.231,0,0,1-1.067,1.615Z" transform="translate(-2725.6 -1732.263)" fill="#0068b9"/>
          <path id="Trazado_854" data-name="Trazado 854" d="M2734.089,1736.877q-1.815,0-1.815-2.237a2.763,2.763,0,0,1,.491-1.769,1.724,1.724,0,0,1,1.424-.608q1.772,0,1.773,2.274a2.722,2.722,0,0,1-.484,1.737A1.678,1.678,0,0,1,2734.089,1736.877Zm.05-3.864q-.727,0-.727,1.6,0,1.509.712,1.509.7,0,.7-1.555T2734.139,1733.013Z" transform="translate(-2728.236 -1732.263)" fill="#0068b9"/>
          <path id="Trazado_855" data-name="Trazado 855" d="M2740.991,1736.877q-1.815,0-1.815-2.237a2.759,2.759,0,0,1,.492-1.769,1.722,1.722,0,0,1,1.423-.608q1.772,0,1.772,2.274a2.719,2.719,0,0,1-.484,1.737A1.676,1.676,0,0,1,2740.991,1736.877Zm.05-3.864q-.727,0-.727,1.6,0,1.509.713,1.509.694,0,.695-1.555T2741.041,1733.013Z" transform="translate(-2730.962 -1732.263)" fill="#0068b9"/>
        </g>
      </g>
    </g>
  </g>
</svg>
